<mxfile host="app.diagrams.net" modified="2024-03-13T09:46:38.501Z" agent="Mozilla/5.0 (Windows NT 10.0; Win64; x64) AppleWebKit/537.36 (KHTML, like Gecko) Chrome/122.0.0.0 Safari/537.36" etag="NP6C-cTH9QxIQjsIYMna" version="24.0.4" type="device">
  <diagram name="Страница 1" id="pMAsmXpN6lodkt-wImfD">
    <mxGraphModel dx="90" dy="169" grid="0" gridSize="10" guides="1" tooltips="1" connect="1" arrows="1" fold="1" page="0" pageScale="1" pageWidth="1169" pageHeight="1654" math="0" shadow="0">
      <root>
        <mxCell id="0" />
        <mxCell id="1" parent="0" />
        <mxCell id="EtcJvUyKYYykekGHgyK3-1" value="" style="ellipse;html=1;shape=startState;fillColor=#000000;strokeColor=#ff0000;" vertex="1" parent="1">
          <mxGeometry x="1345.5999755859375" y="584" width="30" height="30" as="geometry" />
        </mxCell>
        <mxCell id="EtcJvUyKYYykekGHgyK3-2" value="" style="edgeStyle=orthogonalEdgeStyle;html=1;verticalAlign=bottom;endArrow=open;endSize=8;strokeColor=#ff0000;rounded=0;entryX=0.5;entryY=0;entryDx=0;entryDy=0;" edge="1" parent="1" source="EtcJvUyKYYykekGHgyK3-1" target="EtcJvUyKYYykekGHgyK3-8">
          <mxGeometry relative="1" as="geometry">
            <mxPoint x="1360.5999755859375" y="674" as="targetPoint" />
            <Array as="points">
              <mxPoint x="1360.5999755859375" y="704" />
            </Array>
          </mxGeometry>
        </mxCell>
        <mxCell id="EtcJvUyKYYykekGHgyK3-3" value="" style="ellipse;html=1;shape=endState;fillColor=#000000;strokeColor=#ff0000;" vertex="1" parent="1">
          <mxGeometry x="1340.5999755859375" y="814" width="40" height="40" as="geometry" />
        </mxCell>
        <mxCell id="EtcJvUyKYYykekGHgyK3-4" style="edgeStyle=orthogonalEdgeStyle;rounded=0;orthogonalLoop=1;jettySize=auto;html=1;" edge="1" parent="1" source="EtcJvUyKYYykekGHgyK3-8" target="EtcJvUyKYYykekGHgyK3-10">
          <mxGeometry relative="1" as="geometry" />
        </mxCell>
        <mxCell id="EtcJvUyKYYykekGHgyK3-7" style="edgeStyle=orthogonalEdgeStyle;rounded=0;orthogonalLoop=1;jettySize=auto;html=1;entryX=0.5;entryY=0;entryDx=0;entryDy=0;" edge="1" parent="1" source="EtcJvUyKYYykekGHgyK3-8" target="EtcJvUyKYYykekGHgyK3-3">
          <mxGeometry relative="1" as="geometry">
            <Array as="points">
              <mxPoint x="1361.5999755859375" y="814" />
            </Array>
          </mxGeometry>
        </mxCell>
        <mxCell id="EtcJvUyKYYykekGHgyK3-8" value="Главная страница" style="rounded=1;whiteSpace=wrap;html=1;" vertex="1" parent="1">
          <mxGeometry x="1300.5999755859375" y="664" width="120" height="60" as="geometry" />
        </mxCell>
        <mxCell id="EtcJvUyKYYykekGHgyK3-9" style="edgeStyle=orthogonalEdgeStyle;rounded=0;orthogonalLoop=1;jettySize=auto;html=1;entryX=-0.008;entryY=0.628;entryDx=0;entryDy=0;entryPerimeter=0;" edge="1" parent="1" source="EtcJvUyKYYykekGHgyK3-10" target="EtcJvUyKYYykekGHgyK3-14">
          <mxGeometry relative="1" as="geometry">
            <Array as="points">
              <mxPoint x="1621.5999755859377" y="702" />
              <mxPoint x="1621.5999755859377" y="702" />
            </Array>
          </mxGeometry>
        </mxCell>
        <mxCell id="EtcJvUyKYYykekGHgyK3-10" value="Авторизация&amp;nbsp;" style="rounded=1;whiteSpace=wrap;html=1;" vertex="1" parent="1">
          <mxGeometry x="1471.5999755859377" y="664" width="120" height="60" as="geometry" />
        </mxCell>
        <mxCell id="EtcJvUyKYYykekGHgyK3-12" style="edgeStyle=orthogonalEdgeStyle;rounded=0;orthogonalLoop=1;jettySize=auto;html=1;" edge="1" parent="1" source="EtcJvUyKYYykekGHgyK3-10">
          <mxGeometry relative="1" as="geometry">
            <mxPoint x="1591.5999755859377" y="694" as="targetPoint" />
            <Array as="points">
              <mxPoint x="1531.5999755859377" y="644" />
              <mxPoint x="1611.5999755859377" y="644" />
              <mxPoint x="1611.5999755859377" y="694" />
            </Array>
          </mxGeometry>
        </mxCell>
        <mxCell id="EtcJvUyKYYykekGHgyK3-13" value="Ошибка авторизации" style="edgeLabel;html=1;align=center;verticalAlign=middle;resizable=0;points=[];" vertex="1" connectable="0" parent="EtcJvUyKYYykekGHgyK3-12">
          <mxGeometry x="-0.1137" y="-3" relative="1" as="geometry">
            <mxPoint y="-13" as="offset" />
          </mxGeometry>
        </mxCell>
        <mxCell id="EtcJvUyKYYykekGHgyK3-14" value="Регистрация" style="whiteSpace=wrap;html=1;rounded=1;" vertex="1" parent="1">
          <mxGeometry x="1668.5999755859377" y="664" width="120" height="60" as="geometry" />
        </mxCell>
        <mxCell id="EtcJvUyKYYykekGHgyK3-15" style="edgeStyle=orthogonalEdgeStyle;rounded=0;orthogonalLoop=1;jettySize=auto;html=1;entryX=1;entryY=0.5;entryDx=0;entryDy=0;" edge="1" parent="1" source="EtcJvUyKYYykekGHgyK3-14" target="EtcJvUyKYYykekGHgyK3-14">
          <mxGeometry relative="1" as="geometry" />
        </mxCell>
        <mxCell id="EtcJvUyKYYykekGHgyK3-16" value="Ошибка регистрации" style="edgeLabel;html=1;align=center;verticalAlign=middle;resizable=0;points=[];" vertex="1" connectable="0" parent="EtcJvUyKYYykekGHgyK3-15">
          <mxGeometry x="-0.5412" relative="1" as="geometry">
            <mxPoint x="24" y="-10" as="offset" />
          </mxGeometry>
        </mxCell>
      </root>
    </mxGraphModel>
  </diagram>
</mxfile>
